<?xml version="1.0" encoding="UTF-8"?>
<svg xmlns="http://www.w3.org/2000/svg" width="1000" height="1115" viewBox="0 0 1000 1115">
<rect width="100%" height="100%" fill="white"/>
<text x="500.0" y="22" text-anchor="middle" font-family="Arial, sans-serif" font-size="20" font-weight="bold" fill="#222">Rukwa Region - Districts</text>
<g id="districts" fill-rule="evenodd" stroke="#222" stroke-width="1.2" stroke-linejoin="round">
  <path id="Kalambo" d="M 555.423 899.602 L 552.804 900.306 L 550.588 900.580 L 548.493 901.392 L 547.420 900.619 L 546.484 899.530 L 544.389 895.685 L 540.539 895.927 L 539.027 895.283 L 538.256 894.292 L 537.916 892.712 L 537.316 891.541 L 536.361 891.697 L 535.450 892.197 L 529.048 891.900 L 528.320 892.245 L 525.494 891.635 L 522.920 891.741 L 521.757 892.421 L 521.367 892.260 L 520.014 894.210 L 517.542 894.925 L 513.933 894.318 L 512.026 892.678 L 511.410 891.590 L 511.410 889.715 L 510.562 888.549 L 509.923 888.368 L 509.549 887.671 L 508.950 885.351 L 507.195 882.880 L 507.195 881.765 L 506.902 880.979 L 506.138 881.130 L 505.547 880.508 L 505.853 879.989 L 504.497 879.027 L 504.407 878.397 L 503.689 878.040 L 503.475 877.293 L 503.207 877.037 L 502.538 876.991 L 502.157 876.717 L 502.474 876.395 L 501.886 876.141 L 501.678 875.341 L 501.345 875.378 L 500.422 874.552 L 500.428 874.324 L 500.096 874.035 L 499.453 874.194 L 499.510 873.563 L 499.227 873.444 L 499.417 873.008 L 498.978 872.755 L 499.092 872.332 L 498.755 872.045 L 498.284 872.064 L 498.150 871.896 L 497.904 872.275 L 496.482 872.097 L 496.486 871.772 L 495.873 871.260 L 495.471 871.904 L 494.831 872.124 L 494.690 871.900 L 490.293 872.155 L 489.088 871.705 L 488.016 872.611 L 484.935 871.396 L 482.670 872.230 L 480.934 871.953 L 480.233 871.440 L 479.234 872.051 L 477.909 872.083 L 476.614 872.352 L 476.020 871.836 L 474.124 871.442 L 474.060 870.647 L 473.489 871.373 L 473.214 870.255 L 472.146 869.436 L 470.145 868.395 L 468.016 867.926 L 467.323 865.722 L 465.877 864.226 L 464.498 860.293 L 463.746 858.881 L 463.499 856.407 L 462.171 855.214 L 460.899 855.254 L 460.378 854.628 L 460.142 853.919 L 458.706 853.838 L 458.587 853.061 L 458.222 852.279 L 458.754 851.130 L 457.592 850.171 L 457.951 849.902 L 457.835 849.430 L 458.349 849.009 L 458.356 848.631 L 458.601 848.276 L 458.372 847.883 L 458.464 847.436 L 457.899 847.387 L 457.640 846.909 L 456.963 847.309 L 456.265 847.455 L 455.380 847.320 L 454.085 847.829 L 453.318 848.665 L 452.745 847.894 L 452.206 848.335 L 451.631 848.090 L 451.529 849.043 L 449.976 850.163 L 450.246 851.152 L 451.171 852.061 L 451.081 853.205 L 451.231 853.962 L 451.090 854.910 L 451.642 856.466 L 450.841 856.587 L 449.809 857.411 L 448.893 856.619 L 448.308 856.845 L 448.053 858.429 L 447.736 859.029 L 447.204 858.886 L 446.649 859.165 L 446.001 860.391 L 445.631 860.361 L 444.789 860.687 L 444.471 861.302 L 444.241 860.600 L 443.311 860.838 L 443.141 860.487 L 442.791 860.647 L 440.930 858.414 L 440.312 858.695 L 439.622 858.544 L 438.977 859.478 L 437.897 860.085 L 437.274 859.155 L 436.297 858.595 L 435.428 859.425 L 436.035 860.054 L 435.416 861.087 L 433.487 861.131 L 433.031 860.694 L 433.174 859.245 L 433.762 858.453 L 433.438 857.230 L 431.390 856.668 L 430.730 858.074 L 430.280 857.666 L 429.603 857.383 L 428.896 856.698 L 427.180 856.260 L 426.450 856.810 L 425.212 858.174 L 425.317 858.642 L 425.000 858.998 L 423.793 858.639 L 421.304 861.511 L 421.755 862.523 L 420.598 863.184 L 420.176 863.951 L 418.178 865.341 L 418.552 866.500 L 418.490 867.474 L 417.305 867.560 L 416.693 867.095 L 413.054 868.267 L 411.701 867.970 L 410.529 868.629 L 409.165 868.042 L 408.592 868.696 L 407.917 868.811 L 407.675 868.387 L 408.030 868.044 L 408.182 867.221 L 407.556 866.622 L 405.798 866.290 L 405.046 865.519 L 404.835 864.239 L 403.252 864.476 L 402.971 864.296 L 403.268 863.281 L 403.055 862.530 L 401.734 862.099 L 401.635 861.510 L 400.730 860.601 L 399.397 857.405 L 398.925 855.005 L 399.068 854.218 L 398.659 854.011 L 397.737 851.965 L 394.981 850.252 L 393.934 849.403 L 394.045 849.049 L 393.902 848.844 L 393.183 849.498 L 393.253 848.593 L 392.360 848.810 L 391.788 849.336 L 392.171 849.859 L 393.009 849.931 L 393.632 850.457 L 389.671 851.353 L 389.103 850.224 L 388.380 849.623 L 386.555 849.474 L 385.843 848.745 L 385.655 847.608 L 384.567 847.426 L 383.763 848.082 L 383.007 846.510 L 382.643 846.618 L 382.493 847.081 L 382.120 847.166 L 381.956 846.857 L 381.401 846.874 L 380.365 846.579 L 379.647 845.874 L 378.677 845.289 L 377.446 844.965 L 376.917 845.653 L 375.553 845.800 L 375.074 846.508 L 373.277 847.264 L 372.743 847.992 L 369.577 850.334 L 369.315 850.774 L 367.822 850.985 L 367.168 850.315 L 366.811 849.237 L 365.763 849.505 L 364.924 849.454 L 364.594 849.639 L 364.180 849.474 L 363.847 849.565 L 363.649 849.767 L 364.049 850.076 L 364.095 850.375 L 363.647 850.870 L 363.760 851.084 L 364.245 851.005 L 364.396 851.753 L 364.266 853.509 L 363.672 853.441 L 363.496 853.760 L 363.769 854.216 L 363.013 854.116 L 362.623 853.704 L 362.662 853.176 L 361.400 853.268 L 361.317 853.785 L 360.886 853.914 L 360.494 853.649 L 360.803 851.645 L 360.448 851.457 L 360.154 850.426 L 360.907 850.049 L 360.896 849.860 L 360.354 849.665 L 361.005 848.327 L 360.950 847.781 L 360.334 847.245 L 359.718 846.260 L 358.871 843.818 L 359.220 842.910 L 359.188 842.353 L 358.771 841.885 L 358.512 841.827 L 357.749 840.777 L 356.690 838.885 L 356.943 838.065 L 357.390 837.473 L 358.232 837.668 L 359.394 838.552 L 359.493 838.476 L 359.842 837.561 L 359.472 836.543 L 359.791 836.500 L 360.301 835.662 L 360.035 834.261 L 360.172 833.665 L 359.936 833.035 L 359.698 832.610 L 359.128 832.416 L 358.176 831.690 L 357.402 831.324 L 357.125 831.392 L 354.121 828.985 L 353.216 828.483 L 352.965 827.786 L 353.645 826.267 L 352.891 825.597 L 350.905 826.020 L 350.090 825.883 L 349.589 825.272 L 349.411 824.659 L 349.783 822.775 L 349.471 822.240 L 348.182 822.563 L 346.467 820.709 L 345.566 818.961 L 345.153 818.614 L 344.311 817.262 L 344.335 816.783 L 343.441 814.485 L 343.357 813.492 L 342.935 812.888 L 343.077 811.420 L 342.400 809.158 L 342.543 808.289 L 342.363 808.023 L 342.846 804.944 L 342.689 804.214 L 342.015 803.207 L 342.040 802.044 L 341.613 801.820 L 341.201 802.218 L 340.898 802.258 L 340.547 801.997 L 340.511 801.570 L 339.980 801.158 L 339.923 800.810 L 341.276 799.879 L 342.751 799.528 L 343.658 798.032 L 343.750 795.878 L 343.340 795.131 L 343.401 794.210 L 343.074 792.822 L 342.412 792.070 L 342.159 791.477 L 341.694 791.226 L 341.464 790.532 L 340.653 790.030 L 338.374 789.368 L 338.049 786.382 L 337.724 785.342 L 338.206 785.155 L 338.697 784.136 L 338.291 783.667 L 337.904 782.651 L 337.342 781.992 L 337.274 781.647 L 337.698 781.430 L 338.501 781.792 L 338.884 781.661 L 339.425 782.353 L 340.371 782.616 L 343.147 779.990 L 344.514 777.654 L 344.702 777.573 L 346.249 774.373 L 346.193 773.936 L 345.252 772.639 L 345.100 771.641 L 345.545 771.410 L 345.737 771.080 L 346.618 771.062 L 346.735 771.208 L 347.096 771.064 L 347.699 770.430 L 347.632 769.392 L 348.093 768.533 L 348.018 767.990 L 346.974 766.725 L 346.612 766.597 L 345.557 765.018 L 344.842 764.367 L 344.133 763.255 L 343.814 762.262 L 343.070 761.686 L 342.793 761.185 L 341.458 760.391 L 339.585 757.673 L 338.428 756.727 L 337.361 753.888 L 337.444 753.247 L 337.161 751.979 L 337.029 749.185 L 336.570 748.063 L 337.084 747.462 L 337.426 747.574 L 337.822 747.236 L 337.772 746.988 L 336.610 746.369 L 335.454 746.726 L 335.318 746.638 L 335.114 746.957 L 334.586 746.741 L 334.153 745.678 L 333.881 745.498 L 333.117 745.505 L 332.054 744.996 L 331.789 745.047 L 330.647 744.268 L 326.664 742.943 L 325.710 742.769 L 325.193 742.855 L 324.990 743.084 L 324.355 743.005 L 323.843 742.585 L 323.491 742.618 L 323.345 742.867 L 322.709 742.941 L 322.586 742.653 L 321.932 742.155 L 321.581 740.795 L 320.094 740.481 L 320.296 740.268 L 320.798 740.538 L 321.648 740.078 L 321.651 739.679 L 321.287 739.016 L 320.330 738.335 L 320.069 738.481 L 319.656 738.293 L 318.996 738.319 L 318.786 738.809 L 318.317 738.833 L 316.855 738.428 L 315.292 737.570 L 315.130 737.711 L 315.628 738.439 L 315.565 738.881 L 314.875 738.918 L 313.867 738.384 L 314.034 737.979 L 313.749 737.555 L 311.364 737.491 L 310.807 737.225 L 309.544 737.167 L 309.099 736.991 L 308.768 736.539 L 307.822 735.852 L 308.578 735.280 L 309.314 735.644 L 310.639 735.935 L 311.964 735.644 L 312.479 734.916 L 311.964 732.804 L 310.860 732.512 L 309.682 731.711 L 308.872 731.493 L 309.682 733.969 L 307.083 733.219 L 306.824 731.437 L 306.502 730.862 L 305.957 730.312 L 305.019 728.698 L 304.589 728.415 L 303.057 726.513 L 303.228 725.657 L 304.052 725.204 L 304.045 724.940 L 302.739 724.247 L 301.000 724.602 L 300.384 724.095 L 299.203 723.926 L 299.093 723.766 L 298.143 724.201 L 297.332 723.937 L 296.574 724.370 L 296.071 724.142 L 295.602 724.167 L 292.482 722.600 L 291.845 722.018 L 292.050 718.124 L 291.722 717.564 L 289.959 716.247 L 289.999 715.736 L 289.601 714.877 L 291.794 713.866 L 293.782 714.304 L 295.107 713.575 L 295.033 711.171 L 292.972 709.496 L 291.573 709.278 L 291.353 707.894 L 288.850 705.781 L 288.187 704.033 L 287.525 700.318 L 285.758 699.080 L 285.684 698.206 L 284.775 698.358 L 288.780 689.288 L 291.788 687.030 L 301.705 682.206 L 308.550 679.405 L 307.954 678.666 L 307.764 678.022 L 307.891 676.907 L 310.615 675.260 L 310.591 674.598 L 310.968 674.300 L 312.317 674.526 L 312.903 673.343 L 313.491 673.213 L 314.159 672.692 L 315.394 672.829 L 317.605 671.965 L 318.686 672.403 L 320.126 671.285 L 322.228 671.285 L 322.782 670.737 L 323.537 669.523 L 324.891 668.483 L 324.961 667.137 L 326.331 667.157 L 327.175 665.758 L 327.540 665.757 L 328.656 666.257 L 329.353 665.873 L 329.804 665.888 L 331.323 666.582 L 332.064 666.615 L 332.473 666.358 L 331.780 665.978 L 331.755 665.426 L 333.211 663.590 L 335.258 662.125 L 335.368 661.672 L 335.171 660.425 L 335.480 660.159 L 336.409 659.996 L 337.101 659.541 L 337.646 659.515 L 338.420 659.976 L 339.658 659.913 L 340.403 659.614 L 341.067 658.987 L 341.623 656.758 L 342.143 655.988 L 342.892 655.648 L 343.296 655.249 L 343.148 654.390 L 343.469 653.383 L 345.640 652.708 L 347.776 653.702 L 350.001 653.056 L 350.406 654.452 L 352.051 654.624 L 354.494 658.231 L 355.288 659.049 L 356.166 658.893 L 374.752 658.088 L 394.829 658.572 L 395.572 658.754 L 397.658 658.631 L 398.946 659.014 L 407.753 658.970 L 413.353 658.256 L 414.119 657.942 L 414.965 657.905 L 418.222 655.762 L 417.695 652.524 L 416.085 649.281 L 414.768 640.647 L 414.523 634.714 L 416.735 623.668 L 418.386 617.204 L 419.194 611.227 L 419.380 610.837 L 421.002 609.089 L 422.396 608.828 L 422.398 607.794 L 439.796 608.933 L 443.214 608.040 L 438.167 595.506 L 433.412 586.668 L 427.235 577.766 L 431.740 569.945 L 434.587 568.274 L 439.995 567.480 L 442.567 568.153 L 446.197 565.081 L 446.941 564.881 L 447.722 565.307 L 450.186 565.805 L 451.441 566.776 L 452.924 567.013 L 453.872 567.357 L 455.905 566.113 L 458.601 565.230 L 465.885 563.339 L 468.309 563.765 L 472.934 560.914 L 473.002 561.276 L 473.925 561.766 L 476.296 562.026 L 481.073 564.288 L 500.509 571.093 L 498.807 580.083 L 497.063 584.194 L 497.049 585.210 L 495.281 595.067 L 494.651 596.696 L 496.027 597.733 L 498.739 602.419 L 512.127 606.655 L 529.436 604.304 L 533.686 603.486 L 539.773 601.289 L 542.588 604.200 L 542.487 608.381 L 543.844 612.054 L 547.846 618.127 L 545.596 624.860 L 546.617 626.740 L 546.951 629.045 L 546.345 630.920 L 545.619 631.669 L 545.459 636.010 L 543.582 642.499 L 545.730 647.360 L 545.714 651.730 L 546.418 653.224 L 545.366 655.365 L 542.653 668.194 L 541.033 673.502 L 541.499 675.143 L 542.695 682.976 L 544.673 690.568 L 551.483 699.281 L 557.116 702.552 L 562.369 706.336 L 567.973 708.083 L 573.540 709.216 L 586.503 725.179 L 590.303 728.746 L 591.272 729.934 L 595.214 733.426 L 596.652 733.584 L 598.399 733.488 L 599.788 732.623 L 601.688 732.732 L 603.329 733.504 L 605.071 734.840 L 606.661 735.357 L 609.793 735.828 L 615.844 732.105 L 621.959 729.770 L 631.812 729.213 L 636.545 727.855 L 641.076 727.869 L 645.008 730.629 L 647.955 733.385 L 652.079 737.715 L 658.159 746.564 L 659.331 749.903 L 661.289 754.030 L 662.460 757.565 L 666.195 760.520 L 669.337 764.062 L 676.934 765.009 L 678.506 771.463 L 682.932 776.759 L 695.829 783.154 L 710.069 801.995 L 716.907 812.367 L 717.122 812.483 L 718.010 814.441 L 721.194 823.428 L 707.999 846.578 L 709.655 858.411 L 711.824 863.051 L 729.249 887.082 L 736.770 913.494 L 738.610 918.367 L 739.580 924.060 L 742.735 924.265 L 745.696 923.488 L 754.533 922.116 L 765.280 921.091 L 767.788 921.069 L 768.705 921.443 L 770.923 923.537 L 771.886 923.865 L 772.977 922.988 L 774.471 921.158 L 774.988 920.900 L 775.489 920.842 L 775.944 921.228 L 775.932 921.522 L 776.683 921.279 L 777.194 922.002 L 778.288 922.484 L 780.456 921.770 L 782.090 924.552 L 781.628 925.281 L 783.286 927.003 L 783.676 929.024 L 788.105 930.980 L 789.727 930.880 L 790.314 930.237 L 791.173 931.612 L 797.941 933.436 L 798.155 933.072 L 801.639 935.104 L 801.944 935.157 L 802.142 934.865 L 803.353 935.288 L 803.621 935.070 L 803.918 935.088 L 804.165 936.138 L 804.414 936.111 L 804.620 935.658 L 805.312 935.784 L 805.695 936.362 L 805.757 936.787 L 805.696 937.306 L 805.307 937.984 L 805.605 938.336 L 805.752 938.296 L 806.362 937.686 L 807.242 938.119 L 807.492 938.529 L 807.238 939.175 L 807.580 940.383 L 807.740 940.516 L 808.150 940.306 L 808.356 940.584 L 808.241 941.660 L 808.426 941.983 L 808.344 942.160 L 808.006 942.138 L 807.828 942.321 L 807.889 942.591 L 808.370 942.702 L 808.448 943.008 L 808.667 943.127 L 809.542 943.189 L 810.376 943.727 L 810.853 943.538 L 811.602 943.566 L 812.433 943.016 L 812.760 943.387 L 813.603 943.130 L 814.039 943.532 L 814.036 943.689 L 813.669 943.777 L 813.865 944.137 L 814.509 943.995 L 814.649 943.812 L 814.405 943.362 L 814.766 943.240 L 815.063 943.287 L 815.872 944.095 L 816.367 943.933 L 816.735 944.381 L 817.026 944.417 L 817.300 943.861 L 817.633 944.084 L 817.763 944.635 L 818.176 944.351 L 819.779 944.820 L 819.997 944.559 L 820.263 944.634 L 820.242 945.156 L 820.666 945.373 L 820.695 945.873 L 820.134 946.319 L 820.731 946.302 L 821.171 946.660 L 821.666 946.666 L 821.681 947.070 L 822.125 946.743 L 822.266 946.972 L 822.476 948.253 L 822.204 948.814 L 821.783 949.001 L 822.106 949.554 L 822.814 950.193 L 822.842 950.440 L 823.203 950.629 L 823.485 951.150 L 823.728 951.177 L 823.820 951.356 L 823.572 951.853 L 823.687 952.109 L 824.432 952.170 L 824.818 953.067 L 826.073 953.986 L 826.458 954.505 L 821.563 958.620 L 814.894 966.151 L 813.022 965.704 L 810.911 967.916 L 809.569 971.203 L 809.515 973.998 L 805.415 975.423 L 803.085 978.878 L 802.235 979.012 L 802.138 979.581 L 799.788 982.329 L 798.311 982.730 L 796.507 983.574 L 795.771 984.133 L 795.099 985.359 L 795.296 986.179 L 795.209 987.398 L 799.775 990.569 L 812.605 1002.117 L 818.385 1008.718 L 829.071 1016.161 L 833.035 1020.779 L 832.896 1021.365 L 831.662 1022.170 L 831.484 1022.555 L 831.132 1022.786 L 831.130 1023.131 L 830.943 1023.038 L 830.708 1023.366 L 830.193 1023.412 L 830.100 1023.685 L 829.368 1024.262 L 828.210 1024.700 L 827.240 1025.594 L 826.610 1025.645 L 825.838 1026.175 L 825.407 1025.995 L 824.539 1026.011 L 823.487 1026.650 L 822.903 1026.562 L 822.524 1026.965 L 821.719 1027.014 L 821.432 1027.606 L 820.604 1028.056 L 820.449 1028.349 L 820.821 1028.646 L 821.026 1031.665 L 820.491 1032.621 L 819.864 1033.051 L 819.752 1033.655 L 819.054 1034.482 L 819.083 1035.051 L 816.975 1035.749 L 815.762 1037.115 L 815.780 1042.676 L 815.370 1044.616 L 815.807 1047.722 L 816.866 1051.101 L 817.016 1055.004 L 816.429 1056.721 L 814.725 1058.359 L 812.218 1059.407 L 809.041 1059.816 L 805.186 1061.731 L 803.944 1063.409 L 799.449 1065.966 L 799.850 1067.222 L 800.535 1068.149 L 800.301 1068.625 L 797.153 1071.981 L 777.377 1077.251 L 770.943 1078.756 L 770.680 1079.095 L 769.873 1083.357 L 766.997 1084.241 L 764.469 1084.738 L 763.850 1085.174 L 747.034 1078.374 L 738.924 1064.157 L 733.928 1060.132 L 732.524 1055.293 L 732.391 1049.171 L 731.084 1043.245 L 729.318 1039.855 L 729.918 1037.061 L 731.998 1034.565 L 732.899 1030.005 L 738.257 1019.866 L 738.018 1015.806 L 738.418 1015.304 L 736.494 1015.151 L 723.779 1010.700 L 691.261 997.210 L 660.491 994.169 L 655.308 995.183 L 649.086 997.222 L 646.759 999.371 L 644.519 1002.159 L 643.763 1002.606 L 643.056 1003.888 L 642.445 1003.645 L 640.281 1005.867 L 640.124 1006.692 L 639.472 1006.810 L 633.202 1011.885 L 632.021 1010.851 L 623.446 1008.614 L 618.111 1010.803 L 613.186 1007.917 L 610.654 1008.032 L 610.168 1007.269 L 606.324 1007.825 L 604.374 1003.913 L 603.884 1001.697 L 602.555 1001.205 L 602.203 1000.622 L 601.013 1000.848 L 599.511 997.787 L 597.158 993.806 L 591.847 989.519 L 574.564 981.656 L 568.074 976.482 L 565.574 972.499 L 559.806 971.742 L 556.862 968.052 L 556.877 963.932 L 554.960 962.306 L 553.636 960.535 L 552.465 957.293 L 554.259 952.297 L 555.014 948.326 L 556.501 946.419 L 560.257 931.129 L 556.607 918.313 L 554.571 913.584 L 554.276 909.181 L 555.638 900.946 L 555.423 899.602 Z" fill="#8dd3c7" opacity="0.88"><title>Kalambo</title></path>
  <path id="Nkasi" d="M 248.419 660.564 L 249.307 662.136 L 249.061 662.500 L 250.451 663.357 L 250.244 664.453 L 247.371 662.313 L 246.795 660.315 L 247.370 659.985 L 248.419 660.564 Z M 245.786 659.531 L 245.305 658.979 L 245.430 658.090 L 246.206 658.571 L 245.786 659.531 Z M 249.632 636.165 L 250.419 636.458 L 246.181 639.597 L 246.173 638.143 L 247.590 637.030 L 249.632 636.165 Z M 222.681 587.147 L 223.204 586.170 L 221.926 585.307 L 221.752 584.847 L 223.901 583.524 L 224.656 584.214 L 224.889 585.249 L 225.876 585.709 L 227.386 587.492 L 225.992 589.333 L 224.889 589.448 L 223.959 589.275 L 222.681 587.147 Z M 194.946 529.168 L 195.972 518.484 L 196.490 516.221 L 194.831 514.294 L 191.620 514.875 L 191.468 514.327 L 192.058 512.458 L 191.161 509.467 L 191.504 508.565 L 190.482 507.552 L 186.160 505.803 L 183.790 505.711 L 182.959 506.916 L 181.715 507.527 L 181.178 505.543 L 179.500 505.021 L 178.873 504.022 L 179.650 502.995 L 177.723 501.385 L 176.490 498.070 L 175.189 498.763 L 174.371 500.003 L 173.245 498.714 L 174.552 497.127 L 174.236 495.860 L 174.656 494.165 L 176.546 492.850 L 176.552 491.446 L 175.923 490.847 L 174.756 490.899 L 173.724 492.421 L 172.934 492.719 L 170.297 491.419 L 170.762 487.417 L 171.398 486.458 L 169.708 485.391 L 169.453 484.415 L 171.748 482.393 L 172.456 479.904 L 171.776 479.378 L 168.040 479.396 L 166.484 476.036 L 166.390 475.066 L 165.720 473.304 L 165.163 472.586 L 165.051 471.647 L 165.665 471.288 L 165.832 469.934 L 165.888 469.050 L 165.637 467.945 L 164.694 467.670 L 164.689 466.738 L 163.931 466.253 L 163.964 465.542 L 161.510 464.299 L 160.283 464.022 L 159.908 465.503 L 159.590 465.826 L 158.893 465.498 L 159.335 464.768 L 158.652 464.193 L 159.399 463.051 L 159.221 460.120 L 159.697 460.017 L 159.753 459.160 L 159.138 458.753 L 159.005 456.572 L 158.677 455.584 L 157.997 455.331 L 156.865 454.254 L 157.023 452.773 L 157.886 450.966 L 157.922 450.231 L 157.448 449.653 L 156.985 449.605 L 155.989 448.750 L 155.528 448.642 L 155.005 447.088 L 155.764 445.793 L 155.740 444.312 L 157.283 439.674 L 156.968 438.084 L 155.692 436.110 L 155.886 435.761 L 155.643 434.195 L 153.953 432.090 L 154.257 430.969 L 153.237 430.571 L 153.237 429.970 L 152.617 427.945 L 151.973 427.777 L 151.451 427.012 L 151.731 426.313 L 151.269 424.939 L 151.100 422.734 L 150.334 422.397 L 150.249 421.843 L 148.888 421.337 L 148.404 418.950 L 147.918 418.420 L 147.310 418.203 L 146.922 417.396 L 145.596 415.961 L 145.116 416.034 L 143.014 414.227 L 143.257 413.396 L 143.209 412.334 L 143.658 411.721 L 143.512 411.070 L 142.152 410.205 L 139.736 409.747 L 139.530 410.108 L 138.838 410.300 L 138.407 409.855 L 138.369 409.025 L 138.709 408.713 L 138.880 407.232 L 139.171 406.678 L 138.734 406.046 L 138.332 406.010 L 138.065 405.589 L 139.121 403.589 L 139.340 401.455 L 138.149 399.297 L 136.399 397.298 L 133.277 396.033 L 131.445 395.636 L 130.726 395.996 L 130.119 395.671 L 130.058 395.285 L 129.246 395.574 L 127.921 394.924 L 127.727 394.550 L 125.054 394.791 L 124.568 394.297 L 124.715 392.623 L 123.731 392.478 L 123.318 391.875 L 122.978 390.719 L 122.201 390.610 L 122.018 389.478 L 121.483 388.441 L 120.620 387.910 L 120.013 388.284 L 119.288 387.477 L 118.584 388.284 L 118.317 388.163 L 117.964 387.403 L 116.894 386.813 L 116.700 387.283 L 116.214 387.030 L 116.214 386.187 L 116.469 385.898 L 116.372 385.489 L 115.680 385.116 L 115.388 385.356 L 115.206 385.067 L 113.881 384.597 L 112.921 385.995 L 112.714 385.670 L 112.897 384.622 L 112.593 383.683 L 112.872 383.773 L 113.140 383.352 L 112.957 383.002 L 113.498 382.417 L 113.584 381.284 L 112.709 380.670 L 111.920 381.404 L 110.538 381.692 L 110.319 380.548 L 110.465 379.548 L 109.578 379.103 L 109.335 378.404 L 109.396 377.838 L 109.080 377.308 L 108.521 376.934 L 106.894 376.657 L 106.991 375.633 L 105.824 374.958 L 106.249 374.357 L 107.305 374.467 L 107.645 373.900 L 107.900 372.949 L 107.669 372.552 L 107.395 372.648 L 107.080 372.204 L 107.226 371.674 L 105.842 370.433 L 105.623 369.867 L 105.247 369.789 L 104.397 370.355 L 104.153 369.975 L 104.408 368.795 L 103.947 368.289 L 103.351 368.506 L 102.938 366.626 L 102.240 366.554 L 101.676 366.004 L 101.553 363.931 L 102.072 363.281 L 102.701 363.219 L 102.976 363.433 L 103.425 363.062 L 103.389 362.532 L 103.022 362.063 L 103.166 361.653 L 103.063 359.713 L 102.370 359.066 L 101.088 358.348 L 100.054 358.241 L 99.892 358.629 L 99.708 358.475 L 99.353 359.318 L 98.831 359.229 L 98.144 359.746 L 98.074 360.948 L 97.633 361.653 L 97.233 361.647 L 97.053 362.067 L 96.487 361.995 L 96.375 362.472 L 96.105 362.601 L 95.278 362.284 L 95.489 361.911 L 95.037 361.155 L 94.554 361.275 L 94.585 360.852 L 94.855 360.731 L 94.585 360.120 L 94.270 360.227 L 93.915 359.790 L 93.742 359.090 L 93.298 358.516 L 92.279 358.293 L 91.798 358.518 L 91.696 358.320 L 91.808 357.722 L 92.594 357.756 L 92.794 357.462 L 92.714 356.970 L 91.794 356.601 L 92.329 355.493 L 92.708 355.489 L 92.766 354.781 L 92.376 354.556 L 92.507 354.049 L 92.337 352.956 L 92.051 352.820 L 91.960 352.471 L 91.917 351.440 L 91.618 351.506 L 90.660 350.353 L 89.901 350.141 L 89.573 349.347 L 89.173 348.975 L 87.870 348.310 L 87.785 348.052 L 87.217 348.135 L 87.746 346.942 L 87.200 346.133 L 86.756 346.111 L 87.041 345.732 L 88.147 345.348 L 88.551 344.661 L 87.773 343.737 L 88.045 342.582 L 88.695 342.405 L 89.021 341.950 L 89.151 340.774 L 87.040 338.607 L 86.818 337.772 L 87.019 337.241 L 86.926 336.556 L 86.075 336.224 L 85.609 336.501 L 85.641 335.971 L 85.135 335.740 L 84.997 335.257 L 84.494 335.155 L 84.572 333.924 L 85.274 333.025 L 85.297 332.043 L 85.556 331.636 L 85.402 331.311 L 84.285 330.682 L 83.909 331.033 L 83.778 331.663 L 83.279 331.783 L 82.818 331.209 L 82.076 331.780 L 81.625 330.895 L 81.322 330.810 L 80.698 331.812 L 79.804 331.525 L 80.235 329.664 L 79.682 329.441 L 79.609 329.798 L 79.396 329.787 L 79.472 329.201 L 78.868 328.656 L 78.518 327.544 L 78.091 327.426 L 77.972 327.126 L 78.301 327.056 L 78.453 326.707 L 78.262 326.344 L 77.685 326.115 L 77.041 326.786 L 76.727 326.757 L 76.760 326.943 L 76.366 326.919 L 76.252 327.157 L 76.019 327.027 L 75.143 326.291 L 74.929 325.613 L 75.114 325.342 L 74.707 324.758 L 74.828 324.126 L 75.165 323.816 L 75.223 323.205 L 74.325 322.869 L 74.055 323.441 L 73.662 323.380 L 73.625 323.697 L 72.903 323.744 L 72.509 323.443 L 72.544 322.947 L 71.740 322.390 L 71.092 321.479 L 71.298 321.318 L 71.775 321.464 L 72.361 320.931 L 72.855 321.005 L 73.422 320.779 L 73.598 320.517 L 73.510 320.055 L 73.131 319.635 L 72.527 319.649 L 71.271 320.157 L 71.223 319.227 L 70.991 319.083 L 70.311 319.333 L 69.921 318.801 L 69.691 318.937 L 69.515 318.798 L 69.621 318.241 L 69.184 318.187 L 69.044 317.910 L 69.265 317.496 L 69.089 317.341 L 68.515 317.681 L 68.254 317.489 L 67.850 317.571 L 67.964 316.436 L 67.783 315.660 L 68.163 314.745 L 67.614 314.160 L 67.080 314.999 L 66.913 314.949 L 66.754 314.578 L 66.882 314.312 L 66.674 314.313 L 66.501 313.981 L 66.308 312.820 L 66.604 312.406 L 66.490 311.311 L 66.713 311.128 L 66.884 311.350 L 67.746 310.910 L 68.229 311.236 L 70.089 310.726 L 70.600 310.991 L 71.464 310.652 L 71.847 310.823 L 72.478 309.851 L 72.769 308.701 L 72.637 307.837 L 72.839 307.671 L 73.055 307.630 L 73.361 308.022 L 74.475 308.148 L 76.873 308.889 L 78.157 309.891 L 80.040 309.196 L 82.023 307.414 L 82.281 306.844 L 80.224 304.272 L 78.940 302.088 L 79.193 300.686 L 78.488 300.036 L 78.287 298.213 L 77.759 297.877 L 77.394 296.916 L 78.508 295.348 L 78.646 294.154 L 78.205 293.660 L 77.570 293.520 L 77.406 292.960 L 76.499 292.309 L 76.769 291.221 L 77.404 290.655 L 78.089 290.816 L 78.167 291.340 L 78.777 291.779 L 80.158 290.899 L 80.426 289.893 L 80.215 288.360 L 79.255 287.992 L 76.881 288.372 L 73.638 287.826 L 72.578 287.471 L 72.277 286.593 L 73.096 284.536 L 74.057 283.147 L 73.437 281.257 L 73.389 280.310 L 74.617 278.641 L 76.193 278.127 L 77.184 276.656 L 76.040 273.618 L 81.384 270.027 L 82.515 268.898 L 83.696 267.324 L 85.273 264.074 L 85.695 261.916 L 84.565 258.931 L 84.751 256.867 L 85.309 254.971 L 86.025 250.711 L 85.736 250.549 L 85.594 250.033 L 85.511 247.313 L 84.688 244.638 L 84.760 243.206 L 84.440 242.641 L 82.828 242.858 L 82.361 242.726 L 81.207 241.433 L 80.585 240.223 L 80.816 236.282 L 79.083 234.776 L 78.411 233.887 L 78.401 232.713 L 77.797 231.117 L 77.848 230.698 L 78.738 229.979 L 79.325 228.840 L 79.457 228.261 L 79.078 226.731 L 77.599 225.982 L 77.620 225.194 L 76.200 223.555 L 74.489 221.068 L 72.737 220.206 L 71.683 218.317 L 70.925 218.426 L 70.540 218.199 L 70.414 217.570 L 69.709 216.907 L 69.600 216.102 L 69.749 215.507 L 70.238 214.959 L 70.461 213.728 L 70.292 211.683 L 69.818 210.876 L 67.456 208.109 L 64.471 206.000 L 63.290 205.883 L 62.023 204.727 L 61.916 203.623 L 58.904 200.469 L 57.387 199.394 L 56.957 198.404 L 57.149 198.124 L 56.824 197.533 L 55.590 196.575 L 55.964 193.534 L 55.027 191.773 L 55.452 187.798 L 53.833 184.105 L 53.666 182.595 L 51.122 180.440 L 49.556 177.130 L 49.007 172.969 L 44.375 169.664 L 45.147 165.268 L 44.796 164.603 L 44.707 163.218 L 43.535 161.150 L 41.907 160.220 L 40.423 159.850 L 39.267 159.047 L 38.486 159.387 L 38.415 159.042 L 38.875 157.886 L 39.719 157.538 L 40.299 157.614 L 41.148 158.161 L 42.592 156.667 L 43.468 154.698 L 46.077 152.525 L 46.574 151.578 L 46.981 151.628 L 47.503 150.419 L 47.909 148.541 L 47.817 146.551 L 46.684 145.296 L 44.799 144.901 L 42.001 143.009 L 40.574 141.038 L 40.802 140.460 L 38.309 138.685 L 36.184 138.920 L 34.822 138.279 L 34.399 139.290 L 31.967 138.922 L 30.321 137.497 L 30.581 137.113 L 34.273 137.476 L 33.085 134.831 L 33.282 133.995 L 34.100 133.828 L 33.484 132.387 L 33.173 130.455 L 31.184 128.814 L 31.050 129.735 L 30.792 129.863 L 30.000 129.365 L 30.207 126.792 L 31.100 124.501 L 31.746 124.269 L 33.223 125.220 L 34.318 125.226 L 35.832 126.254 L 36.913 127.481 L 37.977 127.692 L 38.683 128.167 L 39.253 131.746 L 39.658 132.242 L 41.045 132.948 L 43.889 133.210 L 47.404 130.466 L 50.956 126.645 L 54.447 122.455 L 60.446 112.000 L 60.778 110.880 L 60.820 109.890 L 60.511 108.839 L 59.933 108.438 L 59.243 108.784 L 58.226 107.126 L 58.517 106.493 L 58.227 105.288 L 58.489 105.303 L 58.784 104.116 L 59.275 103.587 L 58.904 101.735 L 58.264 101.220 L 57.158 101.323 L 55.811 99.459 L 57.573 97.276 L 57.718 95.983 L 57.234 95.027 L 55.791 94.916 L 54.705 93.081 L 55.454 91.013 L 55.176 89.381 L 56.799 90.026 L 58.494 89.312 L 60.440 86.878 L 64.094 78.452 L 65.252 73.113 L 66.744 63.828 L 66.274 61.152 L 65.249 59.764 L 64.202 59.241 L 63.707 59.891 L 63.366 59.854 L 63.138 59.024 L 63.872 58.802 L 64.021 58.542 L 64.433 55.237 L 63.925 54.069 L 61.381 51.650 L 58.777 49.830 L 56.930 47.732 L 56.198 47.870 L 55.459 47.670 L 54.245 46.768 L 87.715 47.359 L 160.430 44.368 L 168.055 60.196 L 178.628 69.243 L 178.499 65.842 L 179.659 61.294 L 180.024 60.158 L 181.415 57.708 L 182.356 55.107 L 181.591 51.988 L 182.952 49.268 L 183.378 48.072 L 183.595 46.396 L 185.320 42.869 L 185.900 40.536 L 185.754 39.606 L 186.453 37.693 L 186.584 35.267 L 186.982 33.442 L 188.271 30.000 L 201.240 30.777 L 208.962 32.701 L 214.999 33.672 L 227.754 36.819 L 240.713 39.566 L 242.966 39.214 L 243.071 40.090 L 249.380 41.492 L 250.806 42.900 L 257.131 50.253 L 259.464 53.869 L 259.747 61.310 L 259.334 70.580 L 258.528 71.492 L 258.095 72.492 L 256.390 82.443 L 254.025 92.791 L 252.633 96.877 L 252.165 99.079 L 252.124 108.321 L 251.698 109.088 L 252.465 109.346 L 256.030 112.881 L 257.429 114.003 L 262.844 120.236 L 267.601 126.322 L 269.715 127.648 L 279.059 131.450 L 286.515 133.438 L 289.669 136.131 L 290.917 136.718 L 292.675 135.925 L 313.261 144.648 L 331.264 151.490 L 333.018 151.793 L 336.753 156.393 L 336.909 156.976 L 338.257 159.163 L 340.428 162.200 L 341.114 162.698 L 341.745 163.950 L 342.547 164.228 L 342.724 165.210 L 347.890 170.898 L 349.799 173.739 L 350.971 174.344 L 351.881 176.065 L 353.477 178.275 L 354.880 178.538 L 358.039 176.719 L 359.050 176.948 L 362.197 175.906 L 363.839 173.795 L 364.871 173.770 L 365.954 175.291 L 368.217 175.300 L 373.428 176.141 L 381.537 176.526 L 385.288 177.256 L 386.175 177.631 L 387.923 177.753 L 389.099 177.442 L 392.517 175.395 L 393.406 175.170 L 395.068 175.262 L 397.444 175.900 L 399.164 175.678 L 401.657 175.716 L 404.434 176.271 L 406.437 176.965 L 407.774 177.773 L 408.840 178.750 L 412.261 182.825 L 413.519 183.574 L 415.668 183.811 L 420.597 183.658 L 422.287 184.007 L 424.633 185.161 L 426.519 186.484 L 431.659 191.655 L 432.431 192.029 L 434.036 191.950 L 436.963 191.016 L 439.141 191.024 L 441.287 192.005 L 442.658 193.126 L 443.600 194.217 L 444.227 195.192 L 442.887 201.197 L 441.419 210.693 L 440.884 215.929 L 439.939 231.093 L 440.553 243.230 L 441.560 249.988 L 443.815 260.729 L 444.314 264.937 L 448.066 282.102 L 451.139 290.049 L 457.623 301.130 L 460.930 305.783 L 465.973 314.210 L 467.807 315.526 L 467.694 316.214 L 469.079 319.092 L 471.147 324.729 L 475.152 328.874 L 481.388 334.175 L 483.319 336.223 L 484.863 337.467 L 490.851 344.097 L 495.443 350.466 L 496.333 355.374 L 496.376 357.526 L 496.871 359.279 L 499.766 363.343 L 500.561 365.616 L 500.752 368.051 L 501.816 371.076 L 509.655 380.563 L 515.553 388.585 L 519.970 395.686 L 523.273 402.678 L 529.504 408.924 L 530.493 412.059 L 526.813 411.837 L 520.351 413.692 L 510.508 421.755 L 501.399 427.890 L 500.755 434.173 L 502.735 436.265 L 502.264 439.680 L 502.313 442.464 L 503.873 443.397 L 504.400 444.260 L 505.035 444.572 L 505.527 445.150 L 505.695 445.865 L 505.001 446.569 L 504.404 446.394 L 503.647 446.635 L 504.286 447.765 L 504.224 448.284 L 503.611 449.290 L 503.080 449.280 L 502.193 448.881 L 502.043 449.228 L 502.740 450.024 L 503.186 450.104 L 502.347 451.987 L 502.527 452.694 L 501.728 452.603 L 501.545 452.872 L 502.092 453.334 L 501.912 455.075 L 502.307 456.159 L 502.360 457.523 L 503.483 458.058 L 504.398 459.896 L 504.981 460.204 L 505.573 462.311 L 506.420 462.699 L 506.515 463.285 L 506.101 463.461 L 506.440 464.008 L 507.665 464.240 L 508.792 464.922 L 509.363 466.439 L 509.573 467.812 L 509.122 467.880 L 509.401 468.303 L 509.015 469.259 L 508.307 469.934 L 508.674 470.523 L 508.343 470.860 L 508.550 471.122 L 508.141 471.145 L 508.530 471.385 L 508.603 471.741 L 509.018 471.644 L 511.024 475.274 L 511.475 476.639 L 511.908 476.888 L 512.524 477.703 L 512.818 478.563 L 513.132 478.772 L 513.602 480.622 L 514.027 481.142 L 514.168 482.135 L 514.733 482.955 L 514.395 483.739 L 514.680 486.302 L 516.280 489.301 L 516.146 490.803 L 513.927 493.307 L 510.494 495.228 L 501.882 500.761 L 501.091 502.378 L 502.305 512.326 L 500.082 514.756 L 496.330 515.438 L 491.074 515.328 L 488.143 515.730 L 478.116 515.578 L 476.737 515.840 L 475.930 516.714 L 475.311 518.505 L 475.103 522.664 L 476.540 527.401 L 476.611 528.699 L 476.056 543.655 L 474.974 546.246 L 473.742 548.187 L 472.582 551.159 L 472.269 552.875 L 472.762 554.060 L 472.552 559.019 L 472.934 560.914 L 468.309 563.765 L 465.885 563.339 L 455.905 566.113 L 453.872 567.357 L 451.441 566.776 L 450.186 565.805 L 447.722 565.307 L 446.941 564.881 L 446.197 565.081 L 442.567 568.153 L 439.995 567.480 L 434.587 568.274 L 431.740 569.945 L 427.235 577.766 L 433.412 586.668 L 438.167 595.506 L 443.214 608.040 L 439.796 608.933 L 422.398 607.794 L 422.396 608.828 L 421.002 609.089 L 419.380 610.837 L 418.386 617.204 L 416.735 623.668 L 414.523 634.714 L 414.768 640.647 L 416.085 649.281 L 417.695 652.524 L 418.222 655.762 L 414.965 657.905 L 407.753 658.970 L 398.946 659.014 L 397.658 658.631 L 395.572 658.754 L 394.829 658.572 L 374.752 658.088 L 355.288 659.049 L 354.494 658.231 L 352.051 654.624 L 350.406 654.452 L 350.001 653.056 L 347.776 653.702 L 345.640 652.708 L 343.469 653.383 L 343.148 654.390 L 343.296 655.249 L 342.143 655.988 L 341.623 656.758 L 341.067 658.987 L 340.403 659.614 L 339.023 660.036 L 338.420 659.976 L 337.646 659.515 L 337.101 659.541 L 335.171 660.425 L 335.258 662.125 L 333.211 663.590 L 331.755 665.426 L 331.780 665.978 L 332.473 666.358 L 332.064 666.615 L 331.323 666.582 L 329.804 665.888 L 329.353 665.873 L 328.656 666.257 L 327.175 665.758 L 326.331 667.157 L 324.961 667.137 L 324.891 668.483 L 323.537 669.523 L 322.228 671.285 L 320.126 671.285 L 318.686 672.403 L 317.605 671.965 L 315.394 672.829 L 314.159 672.692 L 313.491 673.213 L 312.903 673.343 L 312.317 674.526 L 310.968 674.300 L 310.591 674.598 L 310.615 675.260 L 307.891 676.907 L 307.764 678.022 L 307.954 678.666 L 308.550 679.405 L 301.705 682.206 L 291.788 687.030 L 288.780 689.288 L 284.294 699.392 L 283.108 699.153 L 282.887 699.663 L 283.264 701.605 L 281.418 700.699 L 280.024 701.458 L 280.582 700.009 L 278.978 697.526 L 279.118 696.560 L 280.582 697.319 L 281.697 698.284 L 282.185 696.974 L 279.815 694.284 L 277.793 693.387 L 277.584 692.352 L 276.469 691.179 L 274.866 689.938 L 275.563 688.144 L 274.796 687.109 L 273.332 686.143 L 271.938 686.350 L 270.823 687.040 L 269.916 688.420 L 268.034 690.007 L 268.452 690.834 L 269.707 690.972 L 272.705 689.731 L 272.984 690.489 L 274.029 690.972 L 275.144 692.007 L 275.423 693.456 L 273.820 693.525 L 273.332 694.077 L 273.890 695.249 L 273.820 696.353 L 270.544 694.766 L 269.289 693.801 L 268.731 694.352 L 268.662 695.594 L 269.219 696.767 L 269.289 697.664 L 268.592 697.595 L 266.431 696.284 L 265.525 694.766 L 264.688 692.421 L 263.991 688.144 L 264.549 686.833 L 264.479 685.454 L 266.082 683.936 L 266.082 682.487 L 266.292 681.935 L 265.106 681.659 L 265.943 680.900 L 266.292 681.176 L 267.477 680.349 L 268.522 680.693 L 269.916 680.211 L 269.428 679.521 L 266.919 678.210 L 266.919 677.106 L 265.873 676.209 L 264.688 675.795 L 263.921 676.140 L 262.667 675.795 L 262.597 675.312 L 263.712 674.278 L 263.573 673.588 L 262.667 673.174 L 262.806 672.622 L 263.852 672.691 L 264.479 672.277 L 264.409 671.656 L 263.643 671.449 L 263.573 670.276 L 262.179 670.138 L 262.318 671.380 L 261.551 671.863 L 258.136 668.689 L 254.929 666.275 L 256.323 665.861 L 256.323 664.964 L 257.160 664.895 L 257.578 664.481 L 257.369 663.584 L 256.044 662.894 L 256.184 661.445 L 255.626 659.237 L 257.020 658.271 L 257.160 657.443 L 255.417 656.891 L 254.511 655.649 L 253.814 657.650 L 253.047 658.685 L 251.653 657.581 L 250.747 656.408 L 252.210 653.855 L 252.071 653.096 L 252.907 651.717 L 251.583 651.372 L 251.095 650.751 L 248.795 651.027 L 248.725 650.406 L 247.888 650.130 L 248.307 648.888 L 248.098 647.439 L 248.516 646.887 L 248.762 645.702 L 249.781 644.687 L 250.787 645.191 L 250.375 643.409 L 246.019 645.089 L 245.219 644.922 L 246.130 643.243 L 246.260 641.531 L 247.753 640.128 L 249.845 639.852 L 251.529 640.497 L 255.051 640.372 L 255.504 641.654 L 254.867 643.947 L 256.398 646.330 L 257.724 646.574 L 258.152 644.545 L 258.906 643.837 L 260.403 640.169 L 260.016 638.450 L 258.673 638.468 L 258.328 637.428 L 258.752 635.793 L 261.049 634.449 L 261.071 633.612 L 259.979 632.327 L 260.641 628.879 L 259.950 627.847 L 259.140 627.898 L 258.415 625.579 L 256.459 623.991 L 256.210 620.532 L 255.379 618.450 L 254.631 617.201 L 252.855 616.595 L 253.140 616.280 L 253.169 615.245 L 251.426 613.893 L 248.841 613.376 L 247.592 611.852 L 246.488 611.881 L 246.053 612.743 L 245.269 612.628 L 244.891 612.254 L 244.252 612.111 L 244.078 612.456 L 244.136 613.232 L 243.874 613.520 L 241.957 613.462 L 241.725 613.893 L 241.841 614.497 L 241.313 615.425 L 240.244 614.756 L 239.634 615.044 L 239.082 615.015 L 239.198 613.980 L 238.937 613.836 L 238.646 613.951 L 238.182 614.871 L 237.543 614.900 L 234.851 612.394 L 234.245 610.982 L 234.493 609.896 L 233.970 608.660 L 233.941 608.027 L 233.534 607.424 L 233.825 606.676 L 232.721 606.072 L 231.966 604.577 L 231.559 603.196 L 230.281 602.851 L 229.904 602.362 L 229.526 601.529 L 230.020 600.033 L 229.488 598.943 L 229.416 597.355 L 228.487 596.800 L 227.658 593.984 L 228.082 592.689 L 228.080 591.754 L 229.258 590.228 L 229.746 589.006 L 229.401 586.355 L 230.035 584.416 L 228.466 582.881 L 229.590 582.359 L 230.154 581.326 L 229.463 579.494 L 228.318 578.832 L 229.592 575.617 L 227.840 575.306 L 224.982 575.974 L 224.225 575.205 L 224.422 573.740 L 225.082 573.027 L 226.266 573.114 L 227.067 571.610 L 225.689 567.036 L 224.326 566.059 L 221.820 566.222 L 220.021 565.258 L 220.673 563.780 L 220.663 562.027 L 218.619 559.161 L 217.459 555.796 L 216.075 554.056 L 211.628 551.981 L 211.309 547.903 L 207.003 545.157 L 206.733 542.376 L 205.564 541.412 L 201.755 540.690 L 198.197 540.692 L 196.242 541.337 L 195.366 540.199 L 196.000 536.649 L 194.970 533.919 L 195.121 533.330 L 196.352 532.746 L 196.613 531.718 L 195.106 530.276 L 195.407 529.223 L 194.946 529.168 Z M 169.244 491.440 L 168.919 492.545 L 168.454 492.545 L 168.268 491.854 L 169.244 491.440 Z M 168.082 487.711 L 167.803 488.678 L 167.106 488.586 L 167.060 487.757 L 166.549 487.803 L 166.363 488.125 L 165.805 487.895 L 166.223 486.929 L 166.688 486.560 L 167.292 486.929 L 169.383 486.192 L 169.476 486.744 L 169.198 487.941 L 168.779 488.033 L 168.082 487.711 Z M 165.387 477.997 L 165.480 478.596 L 164.132 479.839 L 162.937 479.387 L 164.969 477.675 L 165.387 477.997 Z M 63.122 294.515 L 63.987 294.277 L 64.272 295.274 L 66.073 295.499 L 67.326 296.495 L 67.253 296.865 L 67.702 297.667 L 68.852 298.098 L 69.345 298.940 L 69.385 299.928 L 70.948 300.724 L 71.656 301.601 L 72.036 303.165 L 72.992 303.707 L 72.938 304.321 L 73.146 304.516 L 71.901 305.117 L 70.965 304.538 L 69.952 304.600 L 69.723 305.055 L 69.165 305.292 L 67.424 304.929 L 66.869 305.669 L 66.302 304.426 L 65.684 303.767 L 65.047 304.183 L 64.704 304.056 L 64.230 303.473 L 64.177 302.888 L 64.266 302.475 L 64.748 302.669 L 65.043 302.438 L 65.140 301.989 L 65.375 301.917 L 65.307 300.997 L 64.899 300.586 L 64.584 300.789 L 64.288 300.518 L 63.783 300.467 L 63.567 300.123 L 62.329 299.972 L 62.294 299.646 L 62.008 299.481 L 62.490 298.507 L 62.260 298.006 L 62.664 297.233 L 62.516 296.486 L 62.732 295.811 L 61.869 295.384 L 61.528 294.349 L 62.652 294.116 L 63.122 294.515 Z M 61.098 293.533 L 61.219 294.257 L 59.128 296.135 L 58.384 295.743 L 58.167 295.121 L 57.595 294.753 L 57.396 294.223 L 57.391 293.495 L 58.198 292.795 L 60.168 292.620 L 60.652 292.897 L 61.098 293.533 Z M 52.945 289.161 L 52.447 288.934 L 52.268 288.510 L 51.422 289.181 L 51.173 288.568 L 51.432 288.124 L 50.875 287.502 L 50.526 287.609 L 50.440 287.225 L 50.139 287.139 L 50.035 286.346 L 50.276 285.441 L 49.476 284.733 L 51.103 284.163 L 52.107 283.046 L 53.069 283.960 L 53.428 284.945 L 53.745 285.108 L 53.612 286.032 L 54.247 286.804 L 54.328 287.587 L 54.691 288.184 L 53.144 289.576 L 52.945 289.161 Z M 64.941 264.739 L 65.243 266.237 L 66.460 266.544 L 67.505 266.139 L 69.212 264.791 L 69.416 265.067 L 69.948 265.189 L 70.386 265.769 L 70.572 265.536 L 70.986 265.468 L 71.288 265.708 L 71.363 265.419 L 71.857 265.438 L 71.832 265.732 L 71.055 266.286 L 71.017 267.711 L 72.159 268.943 L 72.363 269.734 L 72.060 271.888 L 72.311 272.868 L 72.064 273.592 L 72.701 274.033 L 72.497 274.818 L 71.916 275.688 L 70.930 275.633 L 68.732 276.509 L 67.860 277.588 L 68.558 279.143 L 68.521 279.756 L 67.310 280.706 L 65.889 280.945 L 65.379 280.187 L 65.292 279.328 L 65.498 277.858 L 65.292 277.309 L 65.758 276.644 L 65.464 275.194 L 67.786 272.338 L 67.988 271.731 L 67.746 270.210 L 67.303 269.462 L 66.002 268.264 L 63.010 269.011 L 61.221 268.046 L 60.790 267.592 L 61.065 267.090 L 60.856 265.364 L 61.007 264.769 L 60.374 264.373 L 59.570 265.149 L 58.362 264.911 L 56.472 265.990 L 56.063 266.022 L 55.891 265.809 L 56.040 265.260 L 57.914 264.475 L 58.593 262.184 L 59.098 261.950 L 60.791 262.044 L 60.892 263.273 L 61.105 263.655 L 62.030 264.008 L 63.068 263.648 L 63.785 263.826 L 64.428 264.120 L 64.941 264.739 Z M 265.932 678.766 L 265.878 679.925 L 264.788 680.390 L 263.949 679.116 L 264.384 678.001 L 265.932 678.766 Z" fill="#ffffb3" opacity="0.88"><title>Nkasi</title></path>
  <path id="Sumbawanga" d="M 676.934 765.009 L 669.337 764.062 L 666.195 760.520 L 662.460 757.565 L 661.289 754.030 L 659.331 749.903 L 658.159 746.564 L 652.079 737.715 L 647.955 733.385 L 645.008 730.629 L 641.076 727.869 L 636.545 727.855 L 631.812 729.213 L 621.959 729.770 L 615.844 732.105 L 609.793 735.828 L 606.661 735.357 L 605.071 734.840 L 603.329 733.504 L 601.688 732.732 L 599.788 732.623 L 598.399 733.488 L 595.214 733.426 L 591.272 729.934 L 590.303 728.746 L 586.503 725.179 L 573.540 709.216 L 567.973 708.083 L 562.369 706.336 L 557.116 702.552 L 551.483 699.281 L 544.673 690.568 L 542.695 682.976 L 541.499 675.143 L 541.033 673.502 L 542.653 668.194 L 545.366 655.365 L 546.418 653.224 L 545.714 651.730 L 545.730 647.360 L 543.582 642.499 L 545.459 636.010 L 545.619 631.669 L 546.345 630.920 L 546.951 629.045 L 546.617 626.740 L 545.596 624.860 L 547.846 618.127 L 543.844 612.054 L 542.487 608.381 L 542.588 604.200 L 539.773 601.289 L 533.686 603.486 L 529.436 604.304 L 512.127 606.655 L 498.739 602.419 L 496.027 597.733 L 494.651 596.696 L 495.281 595.067 L 497.049 585.210 L 497.063 584.194 L 498.807 580.083 L 500.509 571.093 L 481.073 564.288 L 476.296 562.026 L 473.925 561.766 L 473.002 561.276 L 472.552 559.019 L 472.762 554.060 L 472.269 552.875 L 472.582 551.159 L 473.742 548.187 L 474.974 546.246 L 476.056 543.655 L 476.611 528.699 L 476.540 527.401 L 475.103 522.664 L 475.311 518.505 L 475.930 516.714 L 476.737 515.840 L 478.116 515.578 L 488.143 515.730 L 491.074 515.328 L 496.330 515.438 L 500.082 514.756 L 502.305 512.326 L 501.091 502.378 L 501.882 500.761 L 510.494 495.228 L 513.927 493.307 L 516.146 490.803 L 516.280 489.301 L 514.680 486.302 L 514.395 483.739 L 514.733 482.955 L 514.168 482.135 L 514.027 481.142 L 513.602 480.622 L 513.132 478.772 L 512.818 478.563 L 512.524 477.703 L 511.908 476.888 L 511.475 476.639 L 511.024 475.274 L 509.018 471.644 L 508.603 471.741 L 508.530 471.385 L 508.141 471.145 L 508.550 471.122 L 508.343 470.860 L 508.674 470.523 L 508.307 469.934 L 509.015 469.259 L 509.401 468.303 L 509.122 467.880 L 509.573 467.812 L 509.363 466.439 L 508.792 464.922 L 507.665 464.240 L 506.440 464.008 L 506.101 463.461 L 506.515 463.285 L 506.420 462.699 L 505.573 462.311 L 504.981 460.204 L 504.398 459.896 L 503.483 458.058 L 502.360 457.523 L 502.307 456.159 L 501.912 455.075 L 502.092 453.334 L 501.545 452.872 L 501.728 452.603 L 502.527 452.694 L 502.347 451.987 L 503.186 450.104 L 502.740 450.024 L 502.043 449.228 L 502.193 448.881 L 503.080 449.280 L 503.611 449.290 L 504.224 448.284 L 504.286 447.765 L 503.647 446.635 L 504.404 446.394 L 505.001 446.569 L 505.695 445.865 L 505.527 445.150 L 505.035 444.572 L 504.400 444.260 L 503.873 443.397 L 502.313 442.464 L 502.264 439.680 L 502.735 436.265 L 500.755 434.173 L 501.399 427.890 L 510.508 421.755 L 520.351 413.692 L 526.813 411.837 L 530.493 412.059 L 529.504 408.924 L 523.273 402.678 L 519.970 395.686 L 515.553 388.585 L 509.655 380.563 L 501.816 371.076 L 500.752 368.051 L 500.561 365.616 L 499.766 363.343 L 496.871 359.279 L 496.376 357.526 L 496.333 355.374 L 495.443 350.466 L 490.851 344.097 L 484.863 337.467 L 483.319 336.223 L 481.388 334.175 L 475.152 328.874 L 471.147 324.729 L 469.079 319.092 L 467.694 316.214 L 467.807 315.526 L 465.973 314.210 L 460.930 305.783 L 469.176 303.181 L 469.126 302.741 L 469.522 301.945 L 473.685 300.188 L 475.101 298.975 L 477.271 298.056 L 477.416 298.252 L 478.497 298.053 L 478.366 297.266 L 479.190 297.496 L 479.614 297.120 L 480.562 297.228 L 480.887 297.451 L 480.885 296.951 L 481.346 296.851 L 481.577 297.376 L 482.273 297.516 L 482.617 298.099 L 483.873 298.867 L 484.807 298.113 L 485.149 297.024 L 485.810 296.690 L 488.135 296.432 L 488.225 295.428 L 487.881 293.365 L 489.616 289.692 L 494.274 281.713 L 495.049 278.542 L 496.875 277.928 L 501.446 278.096 L 505.109 278.655 L 509.676 276.531 L 510.220 277.043 L 509.630 277.175 L 509.221 276.981 L 509.089 277.440 L 509.505 278.313 L 509.245 278.338 L 508.800 277.854 L 508.493 278.064 L 508.533 278.511 L 508.957 278.871 L 509.645 279.059 L 509.748 279.494 L 509.324 279.805 L 509.257 280.614 L 509.723 280.961 L 509.504 281.427 L 509.882 281.913 L 509.763 282.170 L 509.362 282.121 L 509.195 282.702 L 509.402 283.073 L 510.308 283.418 L 510.551 283.731 L 510.021 284.434 L 509.606 284.174 L 509.383 284.361 L 509.481 284.777 L 510.232 284.972 L 510.295 285.154 L 509.774 285.449 L 509.793 285.684 L 510.586 285.725 L 511.140 286.208 L 511.056 286.797 L 511.218 286.965 L 511.650 286.890 L 511.904 287.142 L 511.553 287.688 L 511.672 287.994 L 512.050 287.928 L 512.269 288.169 L 512.230 288.588 L 512.713 289.372 L 512.001 289.522 L 511.883 289.832 L 512.361 290.964 L 512.654 290.853 L 512.814 290.439 L 513.089 290.515 L 513.391 291.222 L 513.511 290.911 L 514.434 290.839 L 514.475 290.629 L 513.951 290.242 L 514.133 289.761 L 514.728 289.384 L 514.919 289.586 L 514.608 290.298 L 515.947 290.830 L 515.801 291.166 L 515.383 291.151 L 515.190 291.374 L 515.378 291.721 L 515.137 292.637 L 515.530 292.819 L 515.459 293.074 L 514.752 293.557 L 514.394 294.669 L 513.985 294.371 L 512.948 294.825 L 512.934 295.817 L 512.358 296.537 L 512.382 296.898 L 513.173 296.649 L 513.603 296.882 L 513.589 297.130 L 512.797 297.733 L 512.398 297.770 L 512.386 298.019 L 512.708 298.482 L 513.084 298.572 L 513.710 299.460 L 513.041 299.884 L 512.973 299.333 L 512.321 300.016 L 512.419 300.311 L 512.884 300.340 L 513.103 300.571 L 512.872 301.234 L 513.668 302.307 L 513.644 302.478 L 512.957 302.520 L 512.614 302.966 L 512.070 302.986 L 511.946 303.217 L 512.111 303.500 L 512.688 303.608 L 512.826 304.098 L 512.679 305.303 L 513.092 306.032 L 512.594 306.235 L 512.595 306.478 L 513.243 307.273 L 512.763 307.392 L 512.546 308.152 L 512.900 308.676 L 512.562 308.967 L 512.568 309.664 L 512.194 309.810 L 511.779 309.506 L 511.616 309.649 L 511.616 310.391 L 511.044 310.746 L 510.599 310.534 L 510.319 310.909 L 510.861 311.810 L 511.382 311.676 L 511.763 312.036 L 511.610 312.246 L 511.324 312.087 L 510.851 312.176 L 511.136 312.581 L 511.431 312.751 L 511.706 312.437 L 511.951 312.478 L 511.741 313.056 L 511.440 313.139 L 511.234 313.536 L 511.641 314.082 L 511.512 314.624 L 512.073 314.514 L 512.349 314.669 L 512.499 315.554 L 513.091 315.748 L 513.129 316.416 L 513.700 317.116 L 513.623 317.419 L 514.649 317.653 L 514.760 318.103 L 514.407 318.641 L 514.668 318.850 L 514.988 318.778 L 515.553 319.654 L 515.311 320.169 L 515.380 320.490 L 515.885 321.157 L 516.265 321.191 L 516.640 322.359 L 517.076 322.538 L 517.102 323.227 L 517.542 323.059 L 517.711 323.566 L 517.498 324.043 L 518.001 324.055 L 518.307 324.387 L 518.240 324.770 L 518.508 325.192 L 519.486 325.780 L 519.414 326.885 L 519.692 327.359 L 521.007 327.172 L 521.681 327.381 L 522.127 327.167 L 522.779 327.599 L 523.074 327.447 L 525.128 327.560 L 525.617 328.035 L 525.854 327.993 L 526.004 327.519 L 526.800 327.720 L 526.927 328.182 L 528.030 328.817 L 528.254 328.475 L 528.561 328.715 L 528.737 328.313 L 529.098 328.367 L 529.222 327.885 L 530.317 328.467 L 530.947 328.379 L 531.563 328.749 L 532.067 330.196 L 532.959 330.365 L 533.525 330.736 L 533.983 330.674 L 534.424 330.919 L 534.934 330.355 L 535.616 330.509 L 535.895 330.108 L 536.519 329.959 L 537.291 330.043 L 537.303 330.419 L 538.819 330.598 L 538.957 331.114 L 539.155 331.112 L 539.456 330.873 L 539.777 331.036 L 540.045 330.817 L 540.130 330.347 L 540.390 331.111 L 540.975 331.870 L 541.539 331.764 L 542.741 333.618 L 542.935 334.695 L 543.372 335.341 L 543.466 337.372 L 545.653 338.675 L 546.122 338.736 L 546.936 339.713 L 542.883 352.155 L 542.432 355.634 L 543.232 362.865 L 544.103 368.393 L 550.996 371.829 L 555.431 377.029 L 560.136 379.966 L 566.410 381.175 L 569.372 383.420 L 570.695 386.877 L 572.261 389.003 L 571.134 394.453 L 571.006 396.198 L 571.862 399.055 L 573.052 400.758 L 577.932 403.376 L 582.579 402.468 L 583.738 402.607 L 584.164 401.936 L 584.904 401.913 L 586.177 402.446 L 587.269 403.783 L 588.827 404.826 L 588.883 405.399 L 588.013 406.265 L 587.482 407.149 L 588.736 409.829 L 588.697 410.708 L 589.002 412.310 L 589.782 415.085 L 592.252 416.999 L 592.594 418.398 L 595.375 421.460 L 596.439 425.778 L 600.022 427.244 L 606.853 427.085 L 607.055 428.467 L 612.773 427.488 L 615.548 423.353 L 620.661 420.558 L 621.971 420.300 L 623.208 420.934 L 626.875 424.248 L 629.294 426.903 L 632.977 430.383 L 634.444 431.110 L 642.128 429.312 L 645.281 422.062 L 646.306 421.334 L 646.972 421.362 L 648.983 423.377 L 649.540 422.084 L 649.532 420.156 L 650.425 419.672 L 650.801 420.182 L 650.764 423.022 L 651.447 427.074 L 653.072 429.060 L 653.152 427.525 L 653.365 427.079 L 653.849 427.243 L 654.677 429.048 L 655.857 434.519 L 658.021 437.226 L 659.560 442.063 L 660.335 443.062 L 661.210 443.115 L 661.959 442.858 L 662.222 442.538 L 661.784 439.984 L 660.692 438.314 L 659.451 436.937 L 659.552 435.713 L 660.985 436.624 L 661.760 437.979 L 662.253 437.773 L 662.760 438.240 L 664.112 440.360 L 664.711 443.567 L 664.820 443.885 L 665.198 444.035 L 665.426 445.487 L 665.816 445.609 L 666.015 446.905 L 668.001 449.830 L 670.084 451.274 L 671.054 451.373 L 671.635 451.740 L 679.128 454.165 L 679.610 470.238 L 678.249 474.974 L 678.138 476.431 L 680.050 480.846 L 682.039 482.655 L 685.483 481.640 L 686.378 480.741 L 687.530 480.659 L 688.698 482.416 L 688.360 484.494 L 688.594 485.604 L 690.625 488.022 L 691.332 490.613 L 691.171 492.646 L 691.350 493.367 L 689.617 499.724 L 689.804 500.524 L 693.189 505.273 L 692.847 507.641 L 694.644 512.902 L 694.771 517.572 L 698.293 520.589 L 698.611 524.392 L 701.038 525.885 L 706.394 528.188 L 707.637 529.335 L 708.344 535.858 L 707.367 540.560 L 707.114 544.692 L 711.208 546.873 L 712.320 550.199 L 715.823 551.829 L 723.355 564.718 L 728.277 570.407 L 732.397 573.975 L 732.967 578.756 L 736.636 589.441 L 742.994 600.722 L 744.809 609.356 L 744.234 609.104 L 744.815 609.363 L 753.873 620.270 L 757.498 638.991 L 773.421 648.059 L 784.541 658.479 L 796.754 667.807 L 809.365 673.588 L 817.993 672.668 L 819.552 658.671 L 821.096 654.305 L 829.435 655.723 L 831.460 654.879 L 832.782 653.122 L 836.783 652.747 L 863.613 673.810 L 872.769 674.644 L 881.605 672.202 L 885.267 668.795 L 896.899 667.052 L 905.259 665.117 L 903.079 651.161 L 902.439 636.189 L 899.586 626.575 L 902.534 609.824 L 914.455 611.791 L 930.246 622.092 L 944.325 632.356 L 951.209 645.506 L 948.536 658.243 L 952.239 667.383 L 960.604 671.074 L 966.004 670.104 L 970.000 671.623 L 969.343 671.590 L 968.647 671.859 L 967.876 672.862 L 967.599 673.751 L 967.054 673.874 L 966.011 674.568 L 965.555 675.488 L 965.901 678.615 L 964.338 680.934 L 963.692 681.049 L 962.467 682.229 L 961.936 682.423 L 961.725 682.614 L 961.623 683.311 L 960.445 683.886 L 960.198 685.031 L 959.039 685.303 L 957.157 687.727 L 955.771 688.371 L 955.349 688.782 L 955.461 689.792 L 955.264 690.632 L 954.423 691.730 L 953.800 691.701 L 953.412 692.580 L 951.935 694.427 L 951.913 694.939 L 952.486 695.759 L 952.646 697.391 L 952.904 697.987 L 953.125 698.151 L 954.089 698.039 L 954.278 698.215 L 954.016 699.260 L 954.418 699.621 L 954.712 700.583 L 954.199 701.134 L 953.796 702.589 L 953.400 703.044 L 953.372 703.392 L 953.781 703.771 L 953.309 705.045 L 952.926 705.450 L 953.242 707.145 L 952.684 707.723 L 952.462 708.424 L 951.543 708.616 L 950.493 709.663 L 950.548 711.266 L 950.949 712.220 L 951.483 712.769 L 951.660 713.577 L 950.509 715.886 L 946.812 716.554 L 946.091 717.055 L 945.027 715.487 L 944.424 715.284 L 943.087 715.908 L 942.516 715.881 L 940.899 714.870 L 940.633 714.485 L 940.403 713.227 L 939.174 712.297 L 939.345 711.313 L 939.058 710.896 L 936.598 709.726 L 935.700 709.733 L 935.340 710.161 L 934.438 712.611 L 933.605 712.701 L 932.057 711.854 L 930.149 711.758 L 929.874 711.949 L 929.334 713.522 L 928.698 713.880 L 927.929 713.976 L 925.854 713.050 L 925.053 711.339 L 924.860 709.385 L 924.421 709.081 L 922.678 710.855 L 922.462 712.030 L 921.696 713.677 L 921.472 713.722 L 920.648 713.025 L 920.205 712.895 L 918.834 713.127 L 917.155 712.604 L 915.219 712.458 L 914.883 712.818 L 914.516 713.916 L 913.596 714.725 L 913.064 715.665 L 912.921 717.612 L 913.924 719.621 L 914.015 720.181 L 913.918 720.815 L 913.188 722.291 L 913.107 723.443 L 913.365 725.307 L 913.256 725.915 L 912.837 726.510 L 911.731 727.447 L 910.120 727.659 L 909.906 727.362 L 910.002 725.178 L 909.439 724.535 L 909.064 724.506 L 908.382 724.839 L 907.230 726.240 L 906.457 727.743 L 905.509 728.202 L 905.453 728.459 L 905.704 728.827 L 906.365 729.158 L 906.921 729.886 L 908.464 730.779 L 908.634 731.105 L 908.634 731.613 L 908.349 732.111 L 907.545 732.584 L 906.110 731.839 L 905.403 730.678 L 904.900 730.273 L 903.357 730.149 L 902.176 730.688 L 902.166 731.581 L 902.534 732.035 L 902.645 732.895 L 905.498 734.606 L 905.960 734.694 L 906.248 735.041 L 906.311 737.135 L 906.142 737.567 L 903.901 738.358 L 903.081 738.426 L 900.720 737.903 L 899.509 737.334 L 899.133 737.735 L 898.665 739.106 L 899.747 742.161 L 899.641 742.471 L 899.095 742.692 L 897.442 742.686 L 894.677 744.945 L 894.532 745.260 L 895.292 746.197 L 895.448 747.195 L 895.304 747.993 L 894.928 748.730 L 892.993 750.406 L 892.789 750.892 L 893.182 751.613 L 894.552 752.746 L 895.319 753.081 L 896.209 752.868 L 896.983 751.601 L 897.242 751.491 L 897.457 751.735 L 897.592 752.746 L 897.451 753.143 L 895.254 754.741 L 894.860 755.324 L 894.867 755.661 L 897.649 757.210 L 898.245 758.246 L 898.789 758.621 L 898.467 759.756 L 899.786 761.561 L 898.750 762.243 L 898.083 763.299 L 900.074 765.437 L 899.068 769.573 L 899.176 771.719 L 895.189 775.735 L 893.250 774.447 L 892.421 775.146 L 894.300 777.098 L 896.261 777.113 L 898.329 775.260 L 899.083 776.172 L 895.930 778.502 L 896.209 779.854 L 898.525 782.424 L 896.798 782.995 L 895.262 784.091 L 897.933 786.625 L 899.330 784.913 L 901.295 784.831 L 902.748 787.337 L 902.139 789.488 L 903.357 791.720 L 904.311 788.693 L 909.625 790.090 L 907.411 790.830 L 909.459 792.706 L 908.753 795.432 L 909.237 796.541 L 908.296 798.212 L 905.488 797.130 L 904.602 797.897 L 908.725 799.828 L 910.081 799.677 L 911.345 802.787 L 911.272 803.248 L 910.987 803.507 L 909.688 803.478 L 909.420 803.995 L 909.429 804.732 L 909.785 805.116 L 912.047 805.615 L 912.740 806.142 L 912.459 806.551 L 911.050 807.244 L 909.921 808.187 L 910.229 809.910 L 910.757 810.362 L 911.404 810.326 L 913.485 808.551 L 914.606 808.369 L 916.320 808.718 L 917.152 809.235 L 917.457 809.743 L 917.217 810.309 L 915.984 811.255 L 914.556 812.011 L 913.330 813.171 L 911.430 815.722 L 910.152 815.668 L 909.557 815.888 L 908.928 817.537 L 910.536 818.430 L 910.595 818.687 L 910.222 819.287 L 909.111 819.904 L 907.392 819.983 L 907.913 821.794 L 908.269 822.007 L 908.554 821.923 L 908.886 821.284 L 910.591 821.715 L 910.795 822.073 L 910.793 823.019 L 910.702 823.206 L 910.327 823.188 L 909.698 822.924 L 909.031 823.375 L 907.733 823.231 L 906.856 823.691 L 905.753 825.639 L 905.832 826.653 L 906.475 827.708 L 906.943 827.564 L 907.716 826.480 L 907.898 826.510 L 908.637 827.438 L 909.697 828.195 L 909.754 828.849 L 909.247 829.435 L 907.793 828.646 L 907.420 828.683 L 907.166 828.968 L 906.839 830.384 L 904.528 832.663 L 904.196 833.285 L 904.468 834.262 L 906.329 836.595 L 906.297 837.077 L 905.912 837.689 L 905.912 839.128 L 905.674 839.597 L 904.389 840.535 L 903.474 840.737 L 903.792 841.586 L 901.346 845.358 L 897.254 846.869 L 896.302 849.613 L 890.885 852.963 L 892.086 854.195 L 883.545 861.349 L 881.841 864.959 L 880.443 868.417 L 883.502 871.615 L 886.216 875.939 L 888.330 878.247 L 888.151 880.559 L 887.538 881.823 L 886.112 882.858 L 884.510 882.690 L 882.807 882.143 L 882.590 882.712 L 882.981 884.079 L 882.191 884.976 L 881.833 885.811 L 882.351 887.925 L 881.977 890.164 L 881.658 890.821 L 881.034 891.313 L 880.174 891.708 L 880.068 891.971 L 879.000 892.295 L 877.616 896.671 L 876.605 897.855 L 876.143 899.587 L 875.224 900.954 L 871.915 904.870 L 869.576 905.412 L 867.740 906.914 L 864.988 907.546 L 857.697 908.580 L 853.936 909.393 L 852.730 909.401 L 852.242 908.614 L 851.172 908.142 L 850.286 907.152 L 848.991 905.047 L 848.509 902.621 L 846.075 900.675 L 844.451 900.348 L 842.268 900.488 L 841.173 900.846 L 835.970 901.366 L 834.761 901.655 L 832.828 901.714 L 831.738 901.389 L 830.028 901.544 L 829.966 901.277 L 829.561 901.263 L 826.991 901.928 L 823.644 903.858 L 820.157 905.259 L 818.257 906.978 L 815.346 908.366 L 813.230 909.816 L 811.452 911.951 L 808.989 916.112 L 807.361 917.563 L 805.845 918.654 L 805.102 918.958 L 803.617 920.141 L 801.704 925.062 L 801.281 925.726 L 801.783 925.744 L 800.644 927.466 L 800.101 929.339 L 799.719 929.895 L 799.005 930.222 L 799.196 930.899 L 800.120 932.057 L 799.790 932.715 L 799.612 933.820 L 798.155 933.072 L 797.941 933.436 L 791.173 931.612 L 790.314 930.237 L 789.727 930.880 L 788.105 930.980 L 783.676 929.024 L 783.286 927.003 L 781.628 925.281 L 782.090 924.552 L 780.456 921.770 L 778.288 922.484 L 777.194 922.002 L 776.683 921.279 L 775.932 921.522 L 775.944 921.228 L 775.489 920.842 L 774.471 921.158 L 772.977 922.988 L 771.886 923.865 L 770.923 923.537 L 768.705 921.443 L 767.788 921.069 L 765.280 921.091 L 754.533 922.116 L 745.696 923.488 L 742.735 924.265 L 739.580 924.060 L 738.610 918.367 L 736.770 913.494 L 729.249 887.082 L 711.824 863.051 L 709.655 858.411 L 707.999 846.578 L 721.194 823.428 L 718.010 814.441 L 717.122 812.483 L 710.069 801.995 L 695.829 783.154 L 682.932 776.759 L 678.506 771.463 L 676.934 765.009 Z" fill="#bebada" opacity="0.88"><title>Sumbawanga</title></path>
</g>
<g id="labels" font-family="Arial, sans-serif" font-size="10" fill="#111" text-anchor="middle" paint-order="stroke" stroke="white" stroke-width="2.5" stroke-linejoin="round">
  <text x="535.40" y="823.10">Kalambo</text>
  <text x="301.12" y="365.81">Nkasi</text>
  <text x="643.28" y="605.48">Sumbawanga</text>
</g>
</svg>